<svg width="60" height="60" viewBox="0 0 60 60" fill="none" xmlns="http://www.w3.org/2000/svg">
<g clip-path="url(#clip0_974_296)">
<path d="M33.8711 44.5161H26.1292V37.7419H33.8711V44.5161ZM35.2211 33.5739C36.4966 32.4483 38.0471 31.6801 39.7153 31.3471L41.613 30.9677V28.6626C41.6131 28.4829 41.5631 28.3067 41.4686 28.1538C41.374 28.001 41.2387 27.8776 41.0779 27.7974C40.0756 27.296 39.2326 26.5254 38.6435 25.572C38.0543 24.6187 37.7422 23.5201 37.7421 22.3994V20.3226H36.7743C36.0043 20.3226 35.2659 20.0167 34.7214 19.4722C34.177 18.9278 33.8711 18.1893 33.8711 17.4194C33.8711 16.6494 34.177 15.9109 34.7214 15.3665C35.2659 14.822 36.0043 14.5161 36.7743 14.5161H37.7421L38.0885 14.3777C41.0267 13.2021 43.585 11.2413 45.484 8.70968C47.3829 11.2413 49.9413 13.2021 52.8795 14.3777L53.2259 14.5161H54.1937C54.9636 14.5161 55.7021 14.822 56.2466 15.3665C56.791 15.9109 57.0969 16.6494 57.0969 17.4194C57.0969 18.1893 56.791 18.9278 56.2466 19.4722C55.7021 20.0167 54.9636 20.3226 54.1937 20.3226H53.2259V22.3994C53.2258 23.5201 52.9137 24.6187 52.3245 25.572C51.7353 26.5254 50.8924 27.296 49.8901 27.7974C49.7293 27.8776 49.5939 28.001 49.4994 28.1538C49.4049 28.3067 49.3548 28.4829 49.355 28.6626V30.9677L51.2527 31.3471C52.9207 31.6802 54.4711 32.448 55.7469 33.5729L55.7527 33.5652C57.2472 31.6502 58.0607 29.2917 58.0646 26.8626V12.5806C58.0646 5.64387 52.4208 0 45.484 0C38.5472 0 32.9033 5.64387 32.9033 12.5806V26.8626C32.9033 29.281 33.725 31.6616 35.2153 33.5661L35.2211 33.5739Z" fill="#8B1E75"/>
<path d="M51.4423 30.3987L50.3226 30.1752V28.6626C51.4886 28.0843 52.4693 27.191 53.1535 26.0838C53.8377 24.9766 54.198 23.6999 54.1935 22.3984V21.2903C56.3284 21.2903 58.0645 19.5542 58.0645 17.4194C58.0645 15.2845 56.3284 13.5484 54.1935 13.5484H53.4116L53.2384 13.4797C50.465 12.3699 48.0502 10.5189 46.2581 8.12903L45.4839 7.09645L44.7097 8.12903C42.9174 10.5185 40.5026 12.3692 37.7294 13.4787L37.5561 13.5484H36.7742C34.6394 13.5484 32.9032 15.2845 32.9032 17.4194C32.9032 19.5542 34.6394 21.2903 36.7742 21.2903V22.3994C36.7699 23.7008 37.1302 24.9775 37.8144 26.0847C38.4986 27.1918 39.4792 28.0852 40.6452 28.6635V30.1761L39.5255 30.3997C36.0397 31.0955 33.15 33.5168 31.799 36.7752H28.2019C26.851 33.5168 23.9613 31.0955 20.4755 30.3997L19.3548 30.1752L19.3558 28.5484L20.129 27.9668C21.0885 27.2439 21.8674 26.3086 22.4047 25.2342C22.942 24.1598 23.223 22.9755 23.2258 21.7742V21.2903C25.3606 21.2903 27.0968 19.5542 27.0968 17.4194C27.0968 16.4023 26.6952 15.4839 26.0516 14.7919C26.3773 14.5225 26.6398 14.1848 26.8204 13.8027C27.001 13.4205 27.0954 13.0033 27.0968 12.5806C27.0968 5.64387 21.4529 0 14.5161 0C7.57935 0 1.93548 5.64387 1.93548 12.5806C1.93548 13.471 2.34677 14.2597 2.98064 14.7919C2.31116 15.5032 1.93748 16.4426 1.93548 17.4194C1.93548 19.5542 3.67161 21.2903 5.80645 21.2903V21.7742C5.80918 22.9754 6.09011 24.1596 6.62723 25.234C7.16435 26.3084 7.94304 27.2438 8.90226 27.9668L9.67742 28.5484V30.1752L8.55774 30.3987C3.59903 31.3906 0 35.7803 0 40.8368V45.4839C0 50.2868 3.90677 54.1935 8.70968 54.1935H18.3871V60H41.6129V55.1613H51.2903C56.0932 55.1613 60 51.2545 60 46.4516V40.8368C60 35.7803 56.401 31.3906 51.4423 30.3987ZM56.129 17.4194C56.129 18.4868 55.261 19.3548 54.1935 19.3548V15.4839C55.261 15.4839 56.129 16.3519 56.129 17.4194ZM34.8387 17.4194C34.8387 16.3519 35.7068 15.4839 36.7742 15.4839V19.3548C35.7068 19.3548 34.8387 18.4868 34.8387 17.4194ZM38.7097 22.3994V15.1694C41.3186 14.0785 43.6378 12.3954 45.4839 10.2532C47.3299 12.3954 49.6491 14.0785 52.2581 15.1694V22.3994C52.2611 23.3411 52.0004 24.2648 51.5054 25.066C51.0104 25.8671 50.301 26.5136 49.4574 26.9323C49.1348 27.0914 48.8635 27.3381 48.6742 27.644C48.485 27.9499 48.3855 28.3029 48.3871 28.6626V30.9677C48.3871 32.0352 47.519 32.9032 46.4516 32.9032H44.5161C43.4487 32.9032 42.5806 32.0352 42.5806 30.9677V28.6626C42.5806 27.9232 42.1703 27.2603 41.5113 26.9313C40.6674 26.5132 39.9576 25.867 39.4624 25.066C38.9672 24.2649 38.7064 23.3411 38.7097 22.3994ZM26.0768 36.7742H20.7513L22.1671 32.999C23.8383 33.8101 25.2077 35.1324 26.0768 36.7742ZM20.0952 32.2965C20.1784 32.3129 20.2568 32.3429 20.339 32.3623L18.9184 36.1519L16.0974 33.8952L18.6223 32.0013L20.0952 32.2965ZM14.5219 2.31871C15.241 3.12774 16.4332 4.84935 17.04 7.7729C16.8444 7.75412 16.6481 7.74411 16.4516 7.7429L12.5806 7.74194C12.3823 7.74194 12.1877 7.75452 11.9942 7.77194C12.6019 4.87161 13.8029 3.13645 14.5219 2.31871ZM12.5806 9.67742L16.4516 9.67839C18.5613 9.67839 20.3419 11.0448 21.0019 12.9329C19.441 12.3455 16.9974 11.6129 14.5161 11.6129C12.0339 11.6129 9.59129 12.3455 8.03032 12.9329C8.68935 11.0448 10.47 9.67742 12.5806 9.67742ZM23.2258 19.3548V15.4839C24.2932 15.4839 25.1613 16.3519 25.1613 17.4194C25.1613 18.4868 24.2932 19.3548 23.2258 19.3548ZM25.1613 12.5806C25.1613 12.8373 25.0593 13.0835 24.8778 13.2649C24.6964 13.4464 24.4502 13.5484 24.1935 13.5484H23.1484C22.9809 12.3969 22.5202 11.3078 21.8107 10.3856C21.1012 9.46339 20.1665 8.739 19.0965 8.28193C18.6561 5.48419 17.7174 3.50129 16.8542 2.20355C21.6019 3.27194 25.1613 7.51548 25.1613 12.5806ZM12.1771 2.20258C11.3139 3.50032 10.3752 5.48323 9.93484 8.28C8.86476 8.73744 7.9302 9.46221 7.22082 10.3848C6.51145 11.3073 6.05108 12.3967 5.88387 13.5484H4.83871C4.58205 13.5484 4.3359 13.4464 4.15441 13.2649C3.97293 13.0835 3.87097 12.8373 3.87097 12.5806C3.87097 7.51548 7.43032 3.27194 12.1771 2.20258ZM3.87097 17.4194C3.87097 16.3519 4.73903 15.4839 5.80645 15.4839V19.3548C4.73903 19.3548 3.87097 18.4868 3.87097 17.4194ZM7.74194 21.7742V15.1384C8.88774 14.64 11.7194 13.5484 14.5161 13.5484C17.3032 13.5484 20.1416 14.641 21.2903 15.1384V21.7742C21.2883 22.6753 21.0775 23.5636 20.6746 24.3695C20.2716 25.1755 19.6874 25.8771 18.9677 26.4194L18.1955 27C17.955 27.1803 17.7598 27.4141 17.6251 27.6828C17.4904 27.9515 17.42 28.2478 17.4194 28.5484V30.4839L14.5161 32.6613L11.6129 30.4839V28.5484C11.6129 27.9416 11.3226 27.3619 10.8387 27L10.0635 26.4194C9.34425 25.8768 8.76033 25.1752 8.35755 24.3693C7.95477 23.5634 7.74406 22.6751 7.74194 21.7742ZM10.411 32.0013L12.9358 33.8952L10.1148 36.1519L8.69226 32.3565C8.77452 32.3371 8.85484 32.3129 8.93806 32.2955L10.411 32.0013ZM6.86419 32.9961L9.24 39.3319L14.5161 35.1106L18.3871 38.2074V45.7335C17.7567 45.942 17.1831 46.2934 16.711 46.7603L16.1429 47.3274L8.70968 45.6755V40.6452H6.77419V42.5806H1.93548V40.8368C1.93548 37.4458 3.91548 34.4235 6.86419 32.9961ZM1.93548 45.4839V44.5161H6.77419V46.05L5.12226 47.7029L6.49064 49.0713L8.05065 47.5123L16.7603 49.4477L18.0784 48.1287C18.3105 47.9001 18.5855 47.7198 18.8876 47.598C19.1898 47.4763 19.513 47.4156 19.8387 47.4194C21.1732 47.4194 22.2581 48.5042 22.2581 49.8387C22.2581 51.1732 21.1732 52.2581 19.8387 52.2581H8.70968C4.97516 52.2581 1.93548 49.2184 1.93548 45.4839ZM20.3226 58.0645V54.1442C22.4942 53.9003 24.1935 52.0742 24.1935 49.8387C24.1935 47.6158 22.5135 45.7984 20.3226 45.5371V38.7097H39.6774V46.4603C38.6443 46.4831 37.6611 46.9089 36.9378 47.6468C36.2145 48.3848 35.8085 49.3764 35.8065 50.4097V51.2032C35.8085 52.2365 36.2145 53.2281 36.9378 53.9661C37.6611 54.704 38.6443 55.1298 39.6774 55.1526V58.0645H20.3226ZM37.7419 51.2032V50.4097C37.7419 49.2948 38.6487 48.3871 39.7645 48.3871C40.5358 48.3871 41.2297 48.8148 41.5732 49.5039L41.6129 49.5842V53.2258H39.7645C39.2283 53.2253 38.7141 53.012 38.3349 52.6328C37.9557 52.2536 37.7424 51.7395 37.7419 51.2032ZM58.0645 46.4516C58.0645 50.1861 55.0248 53.2258 51.2903 53.2258H43.5484V49.3548C43.5484 49.0982 43.6503 48.852 43.8318 48.6705C44.0133 48.4891 44.2595 48.3871 44.5161 48.3871H51.8574L53.5094 50.039L54.8777 48.6706L53.2258 47.0187V36.7742H51.2903V46.4516H44.5161C43.6577 46.4516 42.8942 46.8329 42.3619 47.4261C42.1331 47.2273 41.8817 47.0561 41.6129 46.9161V36.7742H33.9232C34.5267 35.6317 35.3764 34.6374 36.4108 33.863C37.4452 33.0887 38.6386 32.5536 39.9048 32.2965L40.8368 32.1097C41.3274 33.6852 42.7819 34.8387 44.5161 34.8387H46.4516C48.1858 34.8387 49.6403 33.6852 50.131 32.1097L51.0629 32.2965C53.0352 32.6954 54.8093 33.7632 56.0851 35.3194C57.3608 36.8755 58.0601 38.8245 58.0645 40.8368V46.4516Z" fill="black"/>
<path d="M49.3549 18.3871C49.8894 18.3871 50.3227 17.9539 50.3227 17.4194C50.3227 16.8849 49.8894 16.4517 49.3549 16.4517C48.8205 16.4517 48.3872 16.8849 48.3872 17.4194C48.3872 17.9539 48.8205 18.3871 49.3549 18.3871Z" fill="black"/>
<path d="M41.613 18.3871C42.1475 18.3871 42.5807 17.9539 42.5807 17.4194C42.5807 16.8849 42.1475 16.4517 41.613 16.4517C41.0785 16.4517 40.6453 16.8849 40.6453 17.4194C40.6453 17.9539 41.0785 18.3871 41.613 18.3871Z" fill="black"/>
<path d="M44.9486 22.1564L46.018 21.6212C46.4806 21.39 46.8251 20.9932 46.9886 20.5025C47.1522 20.0119 47.1154 19.4864 46.8841 19.0248L46.4515 18.1587V17.4193H44.516V18.3871C44.516 18.5371 44.5509 18.6861 44.6176 18.8196L45.1528 19.889L44.0835 20.4241L44.9486 22.1564ZM45.4838 26.129C46.6644 26.129 47.8015 25.6993 48.6851 24.9193L47.4057 23.4677C46.3431 24.4035 44.6264 24.4035 43.5638 23.4677L42.2844 24.9193C43.1676 25.6994 44.3055 26.1296 45.4838 26.129Z" fill="black"/>
<path d="M18.3872 18.3871C18.9216 18.3871 19.3549 17.9539 19.3549 17.4194C19.3549 16.8849 18.9216 16.4517 18.3872 16.4517C17.8527 16.4517 17.4194 16.8849 17.4194 17.4194C17.4194 17.9539 17.8527 18.3871 18.3872 18.3871Z" fill="black"/>
<path d="M10.6452 18.3871C11.1797 18.3871 11.613 17.9539 11.613 17.4194C11.613 16.8849 11.1797 16.4517 10.6452 16.4517C10.1108 16.4517 9.67749 16.8849 9.67749 17.4194C9.67749 17.9539 10.1108 18.3871 10.6452 18.3871Z" fill="black"/>
<path d="M13.9811 22.1564L15.0504 21.6212C15.513 21.39 15.8575 20.9932 16.0211 20.5025C16.1846 20.0119 16.1479 19.4864 15.9166 19.0248L15.484 18.1587V17.4193H13.5485V18.3871C13.5485 18.5371 13.5833 18.6861 13.6501 18.8196L14.1853 19.889L13.1159 20.4241L13.9811 22.1564ZM14.5162 26.129C15.6969 26.129 16.834 25.6993 17.7175 24.9193L16.4382 23.4677C15.3756 24.4035 13.6588 24.4035 12.5962 23.4677L11.3169 24.9193C12.2 25.6994 13.3379 26.1296 14.5162 26.129Z" fill="black"/>
</g>
<defs>
<clipPath id="clip0_974_296">
<rect width="60" height="60" fill="white"/>
</clipPath>
</defs>
</svg>
