<svg width="60" height="60" viewBox="0 0 60 60" fill="none" xmlns="http://www.w3.org/2000/svg">
<g clip-path="url(#clip0_974_290)">
<path d="M38.7096 46.4516C36.5749 46.4516 34.8387 44.7153 34.8387 42.5806C34.8387 40.4457 36.5749 38.7097 38.7096 38.7097C40.8446 38.7097 42.5805 40.446 42.5805 42.5806C42.5805 44.7156 40.8443 46.4516 38.7096 46.4516ZM21.2902 13.5485H36.774V27.0969H21.2902V13.5485ZM23.2258 46.4516H13.5483V36.7741H23.2258V46.4516ZM25.1612 37.7419H29.0321V45.4838H25.1612V37.7419Z" fill="#8B1E75"/>
<path d="M15.4837 24.9833V27.0969H17.4193V25.1613H19.355V22.2581C19.355 20.6574 18.0523 19.355 16.4518 19.355C16.1953 19.3546 15.9493 19.2525 15.7679 19.0711C15.5865 18.8897 15.4844 18.6438 15.484 18.3872V17.4194H16.4518C16.7084 17.4198 16.9543 17.5219 17.1357 17.7033C17.3171 17.8847 17.4192 18.1307 17.4196 18.3872V19.355H19.3553V18.3872C19.3553 17.1271 18.5434 16.0626 17.4196 15.6621V13.5485H15.484V15.4841H13.5484V18.3872C13.5484 19.988 14.851 21.2903 16.4515 21.2903C16.7081 21.2907 16.954 21.3928 17.1354 21.5742C17.3168 21.7557 17.4189 22.0016 17.4193 22.2581V23.226H16.4515C16.195 23.2256 15.949 23.1235 15.7676 22.942C15.5862 22.7606 15.4841 22.5147 15.4837 22.2581V21.2903H13.5481V22.2581C13.5484 23.518 14.3603 24.5827 15.4837 24.9833ZM58.0643 30.9678V25.1613L55.4398 16.051C55.0961 15.1327 54.2059 14.5163 53.2256 14.5163C52.2452 14.5163 51.3551 15.1327 50.9891 16.1189L48.3868 25.0231V55.1616C48.3868 57.8296 50.5576 60.0003 53.2256 60.0003C55.8936 60.0003 58.0643 57.8296 58.0643 55.1616V52.2585C58.5776 52.258 59.0696 52.0539 59.4325 51.691C59.7954 51.3281 59.9995 50.836 60 50.3228V32.9035C59.9995 32.3902 59.7954 31.8982 59.4325 31.5353C59.0696 31.1724 58.5776 30.9683 58.0643 30.9678ZM54.1934 32.9032V46.4516H50.3225V26.1291H56.129V30.9678C55.6159 30.9683 55.1239 31.1724 54.761 31.5352C54.3981 31.898 54.194 32.39 54.1934 32.9032ZM53.6042 16.6617L54.1084 18.3872H52.3403L52.8241 16.7295C52.9489 16.3965 53.525 16.4641 53.6042 16.6617ZM51.7753 20.3225H54.6735L55.8049 24.1935H50.6448L51.7753 20.3225ZM56.129 55.1613C56.129 56.7621 54.8264 58.0644 53.2259 58.0644C51.6251 58.0644 50.3228 56.7618 50.3228 55.1613V48.3872H54.1937V50.3228C54.1942 50.836 54.3983 51.3281 54.7612 51.691C55.1241 52.0539 55.6161 52.258 56.1293 52.2585L56.129 55.1613ZM56.129 50.3225V32.9032H58.0646L58.0656 50.3225H56.129Z" fill="black"/>
<path d="M44.5364 39.2372C43.8668 38.8451 43.4081 38.3632 43.1738 37.8058C43.0191 37.4361 42.813 37.1022 42.5815 36.7906V9.6775H50.3234V4.83875C50.3234 2.17077 48.153 0 45.485 0H12.5806C9.91265 0 7.74188 2.17077 7.74188 4.83875V46.4516H0V51.2903C0 53.9583 2.17077 56.1291 4.83875 56.1291H33.8709V60L38.7097 56.3709L43.5484 60V46.7555C43.798 46.4479 44.1215 46.1663 44.5364 45.9241C45.718 45.2321 46.4516 43.9518 46.4516 42.5806C46.4516 41.2095 45.718 39.9292 44.5364 39.2372ZM45.4838 1.93562C47.0845 1.93562 48.3869 3.23827 48.3869 4.83875V7.74188H17.4194V4.83875C17.4194 3.75015 17.0573 2.74442 16.4497 1.93562H45.4838ZM1.93562 51.2903V48.3872H7.74218V51.2903C7.74218 52.8911 6.43954 54.1934 4.83905 54.1934C3.23857 54.1934 1.93562 52.8911 1.93562 51.2903ZM8.68461 54.1934C9.29924 53.3825 9.6775 52.3838 9.6775 51.2903V4.83875C9.6775 3.23796 10.9801 1.93562 12.5806 1.93562C14.1811 1.93562 15.4838 3.23827 15.4838 4.83875V9.6775H40.645V35.25C40.046 34.9889 39.3919 34.8387 38.7094 34.8387C37.7557 34.8372 36.8229 35.118 36.0286 35.6459C35.2342 36.1737 34.614 36.925 34.2461 37.8049C34.011 38.3632 33.5532 38.8451 32.8826 39.2372C31.7011 39.9292 30.9675 41.2095 30.9675 42.5806C30.9675 43.9518 31.7011 45.2321 32.8826 45.9241C33.297 46.166 33.6211 46.4476 33.8706 46.7555V54.1934H8.68461ZM38.7097 53.9516L35.8066 56.1291V49.3434C36.6273 49.9598 37.6336 50.3228 38.7097 50.3228C39.7857 50.3228 40.7924 49.9608 41.6128 49.3434V56.1291L38.7097 53.9516ZM43.5591 44.253C42.5189 44.8606 41.7893 45.6532 41.3884 46.6075C40.9346 47.6885 39.8827 48.3872 38.7097 48.3872C37.5367 48.3872 36.4848 47.6885 36.031 46.6066C35.6304 45.6535 34.9008 44.8609 33.8602 44.253C33.2698 43.9074 32.9031 43.2668 32.9031 42.5806C32.9031 41.8944 33.2698 41.2538 33.8602 40.9083C34.9005 40.3007 35.6301 39.5081 36.031 38.5537C36.4848 37.4728 37.5367 36.7741 38.7097 36.7741C39.8827 36.7741 40.9346 37.4728 41.3884 38.5547C41.7889 39.5078 42.5185 40.3004 43.5591 40.9083C44.1496 41.2538 44.5162 41.8944 44.5162 42.5806C44.5162 43.2668 44.1493 43.9074 43.5591 44.253Z" fill="black"/>
<path d="M36.774 29.0322H13.5483V34.8388H36.7743L36.774 29.0322ZM34.8387 32.9032H15.4837V30.9675H34.8383L34.8387 32.9032ZM21.2902 13.5485H25.1612V15.4841H21.2902V13.5485ZM27.0968 13.5485H36.7743V15.4841H27.0968V13.5485ZM32.903 25.1613H36.774V27.0969H32.903V25.1613ZM21.2902 25.1613H30.9677V27.0969H21.2902V25.1613ZM21.2902 17.4194H36.774V19.355H21.2902V17.4194ZM21.2902 21.2903H36.774V23.226H21.2902V21.2903ZM25.1612 36.7741H29.0321V38.7097H25.1612V36.7741ZM25.1612 40.6453H29.0321V42.581H25.1612V40.6453ZM25.1612 44.5163H29.0321V46.4519H25.1612V44.5163ZM13.5483 48.3872H15.484V50.3228H13.5483V48.3872ZM17.4193 48.3872H19.3549V50.3228H17.4193V48.3872ZM21.2902 48.3872H23.2258V50.3228H21.2902V48.3872Z" fill="black"/>
</g>
<defs>
<clipPath id="clip0_974_290">
<rect width="60" height="60" fill="white"/>
</clipPath>
</defs>
</svg>
